# xmcd CD database file
#
# Track frame offsets:
#	150
#	13478
#	24120
#	36984
#	49836
#	65929
#	79463
#	106653
#	121892
#	134757
#	149127
#	160207
#	179279
#	191404
#	205626
#	220047
#	233345
#	247759
#	264465
#	275794
#	290273
#	301756
#
# Disc length: 4199 seconds
#
# Revision: 0
# Processed by: cddbd v1.5.2PL0 Copyright (c) Steve Scherf et al.
# Submitted via: CDex 1.51
#
DISCID=41106516
DTITLE=Terry Lightfoot's Jazzmen - Tradition in Colour
DYEAR=2005
DGENRE=Jazz
TTITLE0=1 Tishomingo blues
TTITLE1=2 You always hurt the one you love
TTITLE2=3 Lady be good
TTITLE3=4 Green for danger
TTITLE4=5 Blue turning grey over you
TTITLE5=6 Orange blossom
TTITLE6=7 Yellow dog blues
TTITLE7=8 Red wing
TTITLE8=9 The old grey mare
TTITLE9=10 Burgundy street blues
TTITLE10=11 Black diamond rag
TTITLE11=12 Mood indigo
TTITLE12=13 My blue heaven
TTITLE13=14 Black and blue
TTITLE14=15 Panama
TTITLE15=16 The martinique
TTITLE16=17 Maryland my maryand
TTITLE17=18 Snag it
TTITLE18=19 The onions
TTITLE19=20 Coney island washboard
TTITLE20=21 The whistler and his dog
TTITLE21=22 Ol' man mose
EXTD=YEAR: 2005
EXTT0=
EXTT1=
EXTT2=
EXTT3=
EXTT4=
EXTT5=
EXTT6=
EXTT7=
EXTT8=
EXTT9=
EXTT10=
EXTT11=
EXTT12=
EXTT13=
EXTT14=
EXTT15=
EXTT16=
EXTT17=
EXTT18=
EXTT19=
EXTT20=
EXTT21=
PLAYORDER=
